# xmcd
#
# Track frame offsets:
#	151
#	15618
#	26553
#	41895
#	58203
#	78681
#	95356
#	111694
#	128426
#	145041
#	165961
#	180032
#	197303
#	215471
#	231733
#	248001
#	266514
#	281720
#	296197
#
# Disc length: 4121 seconds
#
# Revision: 0
# Processed by: cddbd v1.5.2PL0 Copyright (c) Steve Scherf et al.
# Submitted via: EasyCDDAExtractor 10.0.2.1
#
DISCID=12101713
DTITLE=Various Artist - Anasa mou
DYEAR=1900
DGENRE=
TTITLE0=Ploutarxos - Anasa mou
TTITLE1=Telos
TTITLE2=Bolanis - Moro mou
TTITLE3=Kiamos - Gyrna se mena
TTITLE4=Xrispa - Mia stigmi
TTITLE5=Ploutarxos - Ela
TTITLE6=Kourkoulis - Afieromeno
TTITLE7=Iliadi - Pote den efiges
TTITLE8=Kelekidou - Se bgazo akyro
TTITLE9=Ploutarxos - Dos mou piso tin kardia mou
TTITLE10=Kiamos - Kakia sinithia
TTITLE11=Theodoridou - Telika den aksizeis
TTITLE12=Ploutarxos - Kalitera makria sou
TTITLE13=Kiamos - Eukola
TTITLE14=Ploutarxos - Erota mou anepanalipte
TTITLE15=Psaltis - Aggele mou
TTITLE16=Xolidis - Na eisoun edo
TTITLE17=Kourkoulis - Spasta
TTITLE18=Sfakianakis - Parta
EXTD=
EXTT0=
EXTT1=
EXTT2=
EXTT3=
EXTT4=
EXTT5=
EXTT6=
EXTT7=
EXTT8=
EXTT9=
EXTT10=
EXTT11=
EXTT12=
EXTT13=
EXTT14=
EXTT15=
EXTT16=
EXTT17=
EXTT18=
PLAYORDER=
